:version 1.10
:name ASF
:units
  mass 1
  length 1
  angle deg
:documentation
  ASF file generated by Kaydara
:root
  axis xyz
  order  tx ty tz rx ry rz
  position 0 0 0
  orientation 0 0 0
:bonedata
  begin
    id 1
    name lfemurDummy
    direction 0.61522 -0.761478 0.204097
    length 5.68318
    axis 0 -0 0 xyz
  end
  begin
    id 2
    name lfemur
    direction 0.34202 -0.939693 -5.84747e-008
    length 16.9147
    axis 0 -0 20 xyz
    dof rx ry rz
    limits( -inf , inf )
( -inf , inf )
( -inf , inf )

  end
  begin
    id 3
    name ltibia
    direction 0.34202 -0.939693 1.20839e-009
    length 18.0532
    axis 0 -0 20 xyz
    dof rz ry rx
    limits( -inf , inf )
( -inf , inf )
( -inf , inf )

  end
  begin
    id 4
    name lfoot
    direction 0.0841971 -0.23133 0.969225
    length 5.23822
    axis -90 7.62852e-016 20 xyz
    dof ry rx rz
    limits( -inf , inf )
( -inf , inf )
( -inf , inf )

  end
  begin
    id 5
    name ltoes
    direction 0 0 0
    length 0
    axis 0 0 0 xyz
    dof rz ry rx
    limits( -inf , inf )
( -inf , inf )
( -inf , inf )

  end
  begin
    id 6
    name rfemurDummy
    direction -0.625247 -0.75382 0.202044
    length 5.74091
    axis 0 -0 0 xyz
  end
  begin
    id 7
    name rfemur
    direction -0.34202 -0.939693 -1.47013e-008
    length 16.4922
    axis 0 -0 -20 xyz
    dof rx ry rz
    limits( -inf , inf )
( -inf , inf )
( -inf , inf )

  end
  begin
    id 8
    name rtibia
    direction -0.34202 -0.939693 -7.74345e-010
    length 18.2421
    axis 0 -0 -20 xyz
    dof rz ry rx
    limits( -inf , inf )
( -inf , inf )
( -inf , inf )

  end
  begin
    id 9
    name rfoot
    direction -0.124331 -0.341598 0.931586
    length 5.45787
    axis -90 -7.62852e-016 -20 xyz
    dof ry rx rz
    limits( -inf , inf )
( -inf , inf )
( -inf , inf )

  end
  begin
    id 10
    name rtoes
    direction 0 0 0
    length 0
    axis 0 0 0 xyz
    dof rz ry rx
    limits( -inf , inf )
( -inf , inf )
( -inf , inf )

  end
  begin
    id 11
    name lowerbackDummy
    direction 0 0 0
    length 0
    axis 0 -0 0 xyz
  end
  begin
    id 12
    name lowerback
    direction -0.0218484 0.994884 -0.0986304
    length 4.45607
    axis 0 -0 0 xyz
    dof rx ry rz
    limits( -inf , inf )
( -inf , inf )
( -inf , inf )

  end
  begin
    id 13
    name upperback
    direction -0.00973057 0.999717 -0.0217111
    length 4.47449
    axis 0 -0 0 xyz
    dof rx ry rz
    limits( -inf , inf )
( -inf , inf )
( -inf , inf )

  end
  begin
    id 14
    name thorax
    direction -0.000928171 0.999699 0.0245198
    length 4.50973
    axis 0 -0 0 xyz
    dof rx ry rz
    limits( -inf , inf )
( -inf , inf )
( -inf , inf )

  end
  begin
    id 15
    name rclavicle
    direction -0.9009 0.425937 -0.0834055
    length 7.28587
    axis 0 -0 0 xyz
    dof rx ry rz
    limits( -inf , inf )
( -inf , inf )
( -inf , inf )

  end
  begin
    id 16
    name rhumerus
    direction -1 -2.23604e-007 -1.42637e-007
    length 13.5704
    axis 180 30 90 xyz
    dof rx ry rz
    limits( -inf , inf )
( -inf , inf )
( -inf , inf )

  end
  begin
    id 17
    name rradius
    direction -1 5.68281e-008 -4.4952e-007
    length 8.06782
    axis 180 30 90 xyz
    dof rz ry rx
    limits( -inf , inf )
( -inf , inf )
( -inf , inf )

  end
  begin
    id 18
    name rwrist
    direction -1 1.51393e-007 1.38143e-007
    length 4.03391
    axis -90 -90 0 xyz
    dof rz rx ry
    limits( -inf , inf )
( -inf , inf )
( -inf , inf )

  end
  begin
    id 19
    name rthumb
    direction 0 0 0
    length 0
    axis 0 0 0 xyz
    dof ry rx rz
    limits( -inf , inf )
( -inf , inf )
( -inf , inf )

  end
  begin
    id 20
    name rhand
    direction -1 -3.34077e-007 -5.59631e-007
    length 1.29744
    axis -90 -90 0 xyz
    dof ry rx rz
    limits( -inf , inf )
( -inf , inf )
( -inf , inf )

  end
  begin
    id 21
    name rfingers
    direction 0 0 0
    length 0
    axis 0 0 0 xyz
    dof rz ry rx
    limits( -inf , inf )
( -inf , inf )
( -inf , inf )

  end
  begin
    id 22
    name lclavicle
    direction 0.940017 0.332249 -0.0773232
    length 8.29589
    axis 0 -0 0 xyz
    dof rx ry rz
    limits( -inf , inf )
( -inf , inf )
( -inf , inf )

  end
  begin
    id 23
    name lhumerus
    direction 1 7.41158e-008 -1.44768e-008
    length 12.0042
    axis 180 -30 -90 xyz
    dof rx ry rz
    limits( -inf , inf )
( -inf , inf )
( -inf , inf )

  end
  begin
    id 24
    name lradius
    direction 1 -1.32972e-007 3.10821e-007
    length 8.1902
    axis 180 -30 -90 xyz
    dof rz ry rx
    limits( -inf , inf )
( -inf , inf )
( -inf , inf )

  end
  begin
    id 25
    name lwrist
    direction 1 3.08957e-007 4.01394e-007
    length 4.09509
    axis -90 90 0 xyz
    dof rz rx ry
    limits( -inf , inf )
( -inf , inf )
( -inf , inf )

  end
  begin
    id 26
    name lthumb
    direction 0 0 0
    length 0
    axis 0 0 0 xyz
    dof ry rx rz
    limits( -inf , inf )
( -inf , inf )
( -inf , inf )

  end
  begin
    id 27
    name lhand
    direction 1 -1.64125e-007 -6.99514e-007
    length 1.37229
    axis -90 90 0 xyz
    dof ry rx rz
    limits( -inf , inf )
( -inf , inf )
( -inf , inf )

  end
  begin
    id 28
    name lfingers
    direction 0 0 0
    length 0
    axis 0 0 0 xyz
    dof rz ry rx
    limits( -inf , inf )
( -inf , inf )
( -inf , inf )

  end
  begin
    id 29
    name lowerneck
    direction -0.030798 0.998024 0.0547665
    length 3.93918
    axis 0 -0 0 xyz
    dof rx ry rz
    limits( -inf , inf )
( -inf , inf )
( -inf , inf )

  end
  begin
    id 30
    name upperneck
    direction 0.0531588 0.996611 -0.0627736
    length 3.95491
    axis 0 -0 0 xyz
    dof rx ry rz
    limits( -inf , inf )
( -inf , inf )
( -inf , inf )

  end
  begin
    id 31
    name head
    direction 0 0 0
    length 0
    axis 0 0 0 xyz
    dof rx ry rz
    limits( -inf , inf )
( -inf , inf )
( -inf , inf )

  end
:hierarchy
  begin
    root lfemurDummy rfemurDummy lowerbackDummy
    lfemurDummy lfemur
    lfemur ltibia
    ltibia lfoot
    lfoot ltoes
    rfemurDummy rfemur
    rfemur rtibia
    rtibia rfoot
    rfoot rtoes
    lowerbackDummy lowerback
    lowerback upperback
    upperback thorax
    thorax rclavicle lclavicle lowerneck
    rclavicle rhumerus
    rhumerus rradius
    rradius rwrist
    rwrist rthumb rhand
    rhand rfingers
    lclavicle lhumerus
    lhumerus lradius
    lradius lwrist
    lwrist lthumb lhand
    lhand lfingers
    lowerneck upperneck
    upperneck head
  end

:SAMPLES-PER-SECOND 30
:FULLY-SPECIFIED
:DEGREES
85
root  -2.361022206 36.38600027 9.479977765 -0.07299804688 18.625 -8.916000366
lowerback  15.00059986 7.33509016 -1.409800053
upperback  5.956089973 9.423660278 -2.029959917
thorax  -1.872210026 4.710110188 -2.859930038
lowerneck  4.193689823 1.17888999 -5.85476017
upperneck  14.68729973 -0.06033330038 17.08279991
head  3.543950081 0.4433090091 6.32212019
lclavicle  0 -9.442270133e-015 7.951389973e-016
lhumerus  -1.933509946 -11.65880013 69.85019684
lradius  2.630766122e-031 -2.355400953e-031 138.1609955
lwrist  -7.062250077e-031 -0 17.05509949
lhand  -1.496451383e-031 -27.76390076 20.11240005
lfingers  90 7.125020027 -90
lthumb  89.89689403 5.08795885 91.16245106
rclavicle  0 -9.442270133e-015 7.951389973e-016
rhumerus  23.51569939 -10.49260044 -41.23960114
rradius  7.394660587e-032 3.452829852e-031 77.91200256
rwrist  3.531125038e-031 -0 -2.558039904
rhand  -7.920061211e-032 -33.2840004 9.303460121
rfingers  -90 -7.125020027 -90
rthumb  -92.93752616 -24.25625642 -97.11982154
rfemur  -0.745875001 2.446630001 20.88229942
rtibia  -0 0 53.70780182
rfoot  -4.957352404e-032 -27.0795002 -4.143089771
rtoes  5.373923086 19.29304026 -105.8922705
lfemur  -55.21139908 -8.22603035 -3.000989914
ltibia  -0 0 52.75680161
lfoot  -0 2.707220078 -8.257129669
ltoes  -4.250644065 -19.5611806 -102.515957
86
root  -2.323844489 36.52977831 9.421955319 -0.0659942627 17.57499695 -8.718002319
lowerback  14.82110023 7.40459013 -1.323330045
upperback  5.824649811 9.520620346 -2.287620068
thorax  -1.853770018 4.762139797 -3.171230078
lowerneck  4.610750198 1.402099967 -5.614389896
upperneck  15.15719986 0.1920289993 17.09289932
head  3.583849907 0.5818449855 6.29513979
lclavicle  0 -9.442270133e-015 7.951389973e-016
lhumerus  -3.24642992 -12.2809 70.45860291
lradius  2.643349193e-031 -2.341270826e-031 138.4680023
lwrist  0 -0 16.57530022
lhand  -1.496451383e-031 -27.76390076 20.11240005
lfingers  90 7.125020027 -90
lthumb  89.89689403 5.08795885 91.16245106
rclavicle  0 -9.442270133e-015 7.951389973e-016
rhumerus  21.58679962 -9.640729904 -43.22520065
rradius  5.768826713e-032 3.483683456e-031 80.59739685
rwrist  7.062250077e-031 -3.531125038e-031 -2.135999918
rhand  -7.920061211e-032 -33.2840004 9.303460121
rfingers  -90 -7.125020027 -90
rthumb  -92.93752616 -24.25625642 -97.11982154
rfemur  -0.7195410132 2.969490051 20.53790092
rtibia  -0 0 53.22529984
rfoot  -4.950488209e-032 -26.92370033 -4.415339947
rtoes  5.373923086 19.29304026 -105.8922705
lfemur  -54.28699875 -8.052969933 -2.938460112
ltibia  -0 0 51.97180176
lfoot  -0 2.761379957 -7.494460106
ltoes  -4.250644065 -19.5611806 -102.515957
87
root  -2.277200053 36.71200069 9.364867023 -0.05999755859 16.47799683 -8.513000488
lowerback  14.47599983 7.496379852 -1.394359946
upperback  5.828080177 9.640310287 -2.390589952
thorax  -1.656290054 4.824019909 -3.207570076
lowerneck  4.995059967 1.65557003 -5.438509941
upperneck  15.56830025 0.5083289742 16.92270088
head  3.6082201 0.7389320135 6.218939781
lclavicle  0 -9.442270133e-015 7.951389973e-016
lhumerus  -4.54034996 -12.76439953 71.4618988
lradius  2.658453892e-031 -2.324105622e-031 138.8390045
lwrist  -7.062250077e-031 -0 16.35199928
lhand  -1.496451383e-031 -27.76390076 20.11240005
lfingers  90 7.125020027 -90
lthumb  89.89689403 5.08795885 91.16245106
rclavicle  0 -9.442270133e-015 7.951389973e-016
rhumerus  19.9762001 -8.670260429 -44.96889877
rradius  4.287822268e-032 3.504994984e-031 83.02539825
rwrist  7.062250077e-031 -3.531125038e-031 -2.158449888
rhand  -7.920061211e-032 -33.2840004 9.303460121
rfingers  -90 -7.125020027 -90
rthumb  -92.93752616 -24.25625642 -97.11982154
rfemur  -0.605050981 3.520430088 20.2758007
rtibia  -0 0 52.63460159
rfoot  -4.932345232e-032 -26.50569916 -4.837069988
rtoes  5.373923086 19.29304026 -105.8922705
lfemur  -53.1875 -7.956339836 -2.850569963
ltibia  -0 0 50.89319992
lfoot  -0 2.961380005 -6.571010113
ltoes  -4.250644065 -19.5611806 -102.515957
88
root  -2.225244515 36.92111218 9.298422205 0.08000183105 15.31199646 -8.348999023
lowerback  14.20339966 7.612750053 -1.274009943
upperback  5.727479935 9.810199738 -2.565829992
thorax  -1.559620023 4.912879944 -3.4447999
lowerneck  5.049479961 1.886639953 -5.224160194
upperneck  16.4197998 0.7580980062 16.7003994
head  3.831559896 0.8950480223 6.135099888
lclavicle  0 -9.442270133e-015 7.951389973e-016
lhumerus  -5.87225008 -13.40579987 72.51439667
lradius  2.669739153e-031 -2.311133248e-031 139.1179962
lwrist  -7.062250077e-031 -0 16.0121994
lhand  -1.496451383e-031 -27.76390076 20.11240005
lfingers  90 7.125020027 -90
lthumb  89.89689403 5.08795885 91.16245106
rclavicle  0 -9.442270133e-015 7.951389973e-016
rhumerus  18.04700089 -7.692609787 -46.66270065
rradius  2.847159984e-032 3.51962794e-031 85.37519836
rwrist  7.062250077e-031 -0 -2.413929939
rhand  -7.920061211e-032 -33.2840004 9.303460121
rfingers  -90 -7.125020027 -90
rthumb  -92.93752616 -24.25625642 -97.11982154
rfemur  -0.6754159927 4.13270998 20.09059906
rtibia  -0 0 51.96279907
rfoot  -4.898412559e-032 -25.6984005 -5.452280045
rtoes  5.373923086 19.29304026 -105.8922705
lfemur  -52.08919907 -7.815370083 -2.663189888
ltibia  -0 0 49.51879883
lfoot  4.421534265e-032 3.366029978 -5.532269955
ltoes  -4.250644065 -19.5611806 -102.515957
